# xmcd CD database file
#
# Track frame offsets:
#	150
#	25632
#	51370
#	77210
#	104697
#	120832
#	144407
#	168780
#	191310
#	219557
#
# Disc length: 3183 seconds
#
# Revision: 0
# Processed by: cddbd v1.5.2PL0 Copyright (c) Steve Scherf et al.
# Submitted via: CDex 1.70beta2
#
DISCID=7d0c6d0a
DTITLE=Valktrio - In The Wee small Hours of the Morning
DYEAR=2000
DGENRE=Jazz
TTITLE0=In The Wee small Hours of the Morning
TTITLE1=Stella by Starlight
TTITLE2=How Long Has This Been Going On?
TTITLE3=Am I Oldfashioned?
TTITLE4=You'd Be So Nice To Come Home To
TTITLE5=You've Changed
TTITLE6=Everything Happens to Me
TTITLE7=Chelsea Bridge
TTITLE8=Don't Blame Me
TTITLE9=When I Fall in Love
EXTD=YEAR: 2000
EXTT0=
EXTT1=
EXTT2=
EXTT3=
EXTT4=
EXTT5=
EXTT6=
EXTT7=
EXTT8=
EXTT9=
PLAYORDER=
